<svg xmlns="http://www.w3.org/2000/svg" xmlns:xlink="http://www.w3.org/1999/xlink" version="1.1" x="0px" y="0px" viewBox="0 0 128 160" enable-background="new 0 0 128 128" xml:space="preserve"><g><g><path d="M64,120c-0.4,0-0.8-0.1-1.2-0.4C60.2,117.7,0,72.7,0,40.9C0,22.7,14.8,8,33,8c14.2,0,26.4,9,31,21.6C68.6,17,80.8,8,95,8    c18.2,0,33,14.7,33,32.9c0,31.8-60.2,76.8-62.8,78.7C64.8,119.9,64.4,120,64,120z M33,12C17,12,4,24.9,4,40.9    c0,27.5,51.5,68.1,60,74.6c8.5-6.5,60-47.2,60-74.6C124,24.9,111,12,95,12S66,24.9,66,40.9c0,1.1-0.9,2-2,2s-2-0.9-2-2    C62,24.9,49,12,33,12z"/></g></g><text x="0" y="143" fill="#000000" font-size="5px" font-weight="bold" font-family="'Helvetica Neue', Helvetica, Arial-Unicode, Arial, Sans-serif">Created by Erich Grois</text><text x="0" y="148" fill="#000000" font-size="5px" font-weight="bold" font-family="'Helvetica Neue', Helvetica, Arial-Unicode, Arial, Sans-serif">from the Noun Project</text></svg>