<svg xmlns="http://www.w3.org/2000/svg" data-name="Layer 1" viewBox="0 0 64 80" x="0px" y="0px"><title>black friday cart sale store trolley</title><g><path d="M60.854,20.1172A2.9859,2.9859,0,0,0,58.5186,19H22a1,1,0,0,0,0,2H58.5186a1,1,0,0,1,.977,1.2124L55.1938,42H24.7993L18.3281,13.3379A2.9841,2.9841,0,0,0,15.4019,11H13.8157A2.995,2.995,0,0,0,11,9H5a3,3,0,0,0,0,6h6a2.995,2.995,0,0,0,2.8157-2h1.5862a.994.994,0,0,1,.9751.7788l6.4183,28.4269a3.98,3.98,0,0,0-1.6224,6.6214,3.9517,3.9517,0,0,0,2.5839,1.1617c.0181.0009.0362.0014.0542.0014a1,1,0,0,0,.0523-1.9985,1.9565,1.9565,0,0,1-1.2764-.5786A1.9984,1.9984,0,0,1,24,44H56a1,1,0,0,0,.9771-.7876L61.45,22.6372A2.9864,2.9864,0,0,0,60.854,20.1172ZM11,13H5a1,1,0,0,1,0-2h6a1,1,0,0,1,0,2Z"/><path d="M46.81,48H34.19a1,1,0,1,0,0,2H46.81a1,1,0,1,0,0-2Z"/><path d="M29,48a4,4,0,1,0,4,4A4.0045,4.0045,0,0,0,29,48Zm0,6a2,2,0,1,1,2-2A2.002,2.002,0,0,1,29,54Z"/><path d="M52,48a4,4,0,1,0,4,4A4.0045,4.0045,0,0,0,52,48Zm0,6a2,2,0,1,1,2-2A2.002,2.002,0,0,1,52,54Z"/></g><text x="0" y="79" fill="#000000" font-size="5px" font-weight="bold" font-family="'Helvetica Neue', Helvetica, Arial-Unicode, Arial, Sans-serif">Created by Mutualism</text><text x="0" y="84" fill="#000000" font-size="5px" font-weight="bold" font-family="'Helvetica Neue', Helvetica, Arial-Unicode, Arial, Sans-serif">from the Noun Project</text></svg>